<mxfile host="app.diagrams.net" modified="2023-03-04T13:51:55.295Z" agent="5.0 (Windows)" etag="A3PuoXPTkPLfjUJx8a2u" version="21.0.2" type="github">
  <diagram name="Page-1" id="QaAVnieUUXBiS1ZqtGDE">
    <mxGraphModel dx="2391" dy="2285" grid="1" gridSize="10" guides="1" tooltips="1" connect="1" arrows="1" fold="1" page="1" pageScale="1" pageWidth="1169" pageHeight="827" math="0" shadow="0">
      <root>
        <mxCell id="0" />
        <mxCell id="1" parent="0" />
        <mxCell id="i5s40QyI9Gly42XplSTK-2" value="superviseur" style="html=1;overflow=block;blockSpacing=1;shape=umlActor;labelPosition=center;verticalLabelPosition=bottom;verticalAlign=top;whiteSpace=nowrap;fontSize=16.7;fontColor=#333333;align=center;spacing=0;strokeColor=#5e5e5e;strokeOpacity=100;rounded=1;absoluteArcSize=1;arcSize=9;strokeWidth=2.3;lucidId=wAitfE4UTxwo;" parent="1" vertex="1">
          <mxGeometry x="-1090" y="-1580" width="50" height="80" as="geometry" />
        </mxCell>
        <mxCell id="i5s40QyI9Gly42XplSTK-11" style="edgeStyle=orthogonalEdgeStyle;rounded=0;orthogonalLoop=1;jettySize=auto;html=1;exitX=0;exitY=0.5;exitDx=0;exitDy=0;endArrow=none;endFill=0;" parent="1" source="i5s40QyI9Gly42XplSTK-4" target="i5s40QyI9Gly42XplSTK-2" edge="1">
          <mxGeometry relative="1" as="geometry" />
        </mxCell>
        <mxCell id="i5s40QyI9Gly42XplSTK-4" value="Consulter la liste des evenements supervisÃ©" style="html=1;overflow=block;blockSpacing=1;whiteSpace=wrap;ellipse;fontSize=13;spacing=3.8;strokeColor=#b85450;strokeOpacity=100;rounded=1;absoluteArcSize=1;arcSize=9;strokeWidth=1;lucidId=eDitzyq0~7Tt;fillColor=#f8cecc;" parent="1" vertex="1">
          <mxGeometry x="-902.5" y="-1577.5" width="195" height="47.5" as="geometry" />
        </mxCell>
        <mxCell id="i5s40QyI9Gly42XplSTK-12" style="edgeStyle=orthogonalEdgeStyle;rounded=0;orthogonalLoop=1;jettySize=auto;html=1;endArrow=none;endFill=0;" parent="1" source="i5s40QyI9Gly42XplSTK-5" edge="1">
          <mxGeometry relative="1" as="geometry">
            <mxPoint x="-1040" y="-1530" as="targetPoint" />
            <Array as="points">
              <mxPoint x="-970" y="-1480" />
              <mxPoint x="-970" y="-1530" />
            </Array>
          </mxGeometry>
        </mxCell>
        <mxCell id="i5s40QyI9Gly42XplSTK-5" value="Verfier les reservations des clients avec Qr reader" style="html=1;overflow=block;blockSpacing=1;whiteSpace=wrap;ellipse;fontSize=13;spacing=3.8;strokeColor=#b85450;strokeOpacity=100;rounded=1;absoluteArcSize=1;arcSize=9;strokeWidth=1;lucidId=tDitnoB0Gj56;fillColor=#f8cecc;" parent="1" vertex="1">
          <mxGeometry x="-900" y="-1500" width="190" height="40" as="geometry" />
        </mxCell>
        <mxCell id="i5s40QyI9Gly42XplSTK-6" value="S&#39;authentifier" style="html=1;overflow=block;blockSpacing=1;whiteSpace=wrap;ellipse;fontSize=13;spacing=3.8;strokeColor=default;strokeOpacity=100;rounded=1;absoluteArcSize=1;arcSize=9;strokeWidth=1;lucidId=XvitAHHM73nt;" parent="1" vertex="1">
          <mxGeometry x="-582.5" y="-1517.5" width="120" height="20" as="geometry" />
        </mxCell>
        <mxCell id="i5s40QyI9Gly42XplSTK-7" value="Deconnecter" style="html=1;overflow=block;blockSpacing=1;whiteSpace=wrap;ellipse;fontSize=13;spacing=3.8;strokeColor=default;strokeOpacity=100;rounded=1;absoluteArcSize=1;arcSize=9;strokeWidth=1;lucidId=XvitmW9DInrr;" parent="1" vertex="1">
          <mxGeometry x="-500" y="-1600" width="120" height="22.5" as="geometry" />
        </mxCell>
        <mxCell id="i5s40QyI9Gly42XplSTK-8" value="&amp;lt;&amp;lt;include&amp;gt;&amp;gt;" style="html=1;verticalAlign=bottom;labelBackgroundColor=none;endArrow=open;endFill=0;dashed=1;rounded=0;entryX=0;entryY=0;entryDx=0;entryDy=0;exitX=0.99;exitY=0.622;exitDx=0;exitDy=0;exitPerimeter=0;strokeColor=default;strokeWidth=1;" parent="1" source="i5s40QyI9Gly42XplSTK-4" target="i5s40QyI9Gly42XplSTK-6" edge="1">
          <mxGeometry width="160" relative="1" as="geometry">
            <mxPoint x="-702.5" y="-1507.5" as="sourcePoint" />
            <mxPoint x="-537.5" y="-1517.5" as="targetPoint" />
          </mxGeometry>
        </mxCell>
        <mxCell id="i5s40QyI9Gly42XplSTK-9" value="&amp;lt;&amp;lt;include&amp;gt;&amp;gt;" style="html=1;verticalAlign=bottom;labelBackgroundColor=none;endArrow=open;endFill=0;dashed=1;rounded=0;entryX=0;entryY=0.5;entryDx=0;entryDy=0;exitX=1;exitY=0.5;exitDx=0;exitDy=0;strokeColor=default;strokeWidth=1;" parent="1" source="i5s40QyI9Gly42XplSTK-5" target="i5s40QyI9Gly42XplSTK-6" edge="1">
          <mxGeometry width="160" relative="1" as="geometry">
            <mxPoint x="-647.5" y="-1377.5" as="sourcePoint" />
            <mxPoint x="-487.5" y="-1388.33" as="targetPoint" />
          </mxGeometry>
        </mxCell>
        <mxCell id="i5s40QyI9Gly42XplSTK-10" value="&amp;lt;&amp;lt;extend&amp;gt;&amp;gt;" style="html=1;verticalAlign=bottom;labelBackgroundColor=none;endArrow=open;endFill=0;dashed=1;rounded=0;entryX=1;entryY=0;entryDx=0;entryDy=0;strokeColor=default;strokeWidth=1;exitX=0.478;exitY=1.007;exitDx=0;exitDy=0;exitPerimeter=0;" parent="1" source="i5s40QyI9Gly42XplSTK-7" target="i5s40QyI9Gly42XplSTK-6" edge="1">
          <mxGeometry x="0.4013" y="-13" width="160" relative="1" as="geometry">
            <mxPoint x="-442" y="-1560" as="sourcePoint" />
            <mxPoint x="-17.5" y="-1407.5" as="targetPoint" />
            <mxPoint as="offset" />
          </mxGeometry>
        </mxCell>
      </root>
    </mxGraphModel>
  </diagram>
</mxfile>
